<svg xmlns="http://www.w3.org/2000/svg" viewBox="0 0 200 200" width="200" height="200">
<g transform="translate(-18 0)"><path d="M168 122 L186 150" stroke="#C0504D" stroke-width="8" stroke-linecap="round"/><circle cx="186" cy="150" r="7" fill="#E57373" stroke="#C0504D" stroke-width="3"/><path d="M72 128 L58 156" stroke="#C0504D" stroke-width="8" stroke-linecap="round"/><circle cx="58" cy="156" r="7" fill="#E57373" stroke="#C0504D" stroke-width="3"/></g><g transform="translate(-18 0) scale(1.0)"><path d="M88 104 C74 122 84 150 72 186" fill="none" stroke="#F6A5A5" stroke-width="9" stroke-linecap="round"/><path d="M110 25 C155 25 175 65 172 105 C169 150 140 178 105 175 C75 172 60 150 70 130 C76 118 88 112 88 100 C88 88 76 82 70 70 C60 48 78 25 110 25 Z" fill="#E57373" stroke="#C0504D" stroke-width="4"/><path d="M120 42 C145 45 158 65 160 88" fill="none" stroke="#FFFFFF" stroke-opacity="0.55" stroke-width="7" stroke-linecap="round"/><circle cx="112" cy="94" r="6" fill="#3B2A2A"/><circle cx="142" cy="94" r="6" fill="#3B2A2A"/><circle cx="114" cy="92" r="2" fill="#FFFFFF"/><circle cx="144" cy="92" r="2" fill="#FFFFFF"/><path d="M116 118 L138 118" stroke="#3B2A2A" stroke-width="4" stroke-linecap="round"/></g>
</svg>
