<svg xmlns="http://www.w3.org/2000/svg" viewBox="0 0 200 200" width="200" height="200">
<g transform="translate(-18 0)"><path d="M168 130 L180 166" stroke="#C0504D" stroke-width="8" stroke-linecap="round"/><circle cx="180" cy="166" r="7" fill="#E57373" stroke="#C0504D" stroke-width="3"/><path d="M72 140 L62 172" stroke="#C0504D" stroke-width="8" stroke-linecap="round"/><circle cx="62" cy="172" r="7" fill="#E57373" stroke="#C0504D" stroke-width="3"/></g><g transform="translate(-18 0) scale(1.0)"><path d="M88 104 C74 122 84 150 72 186" fill="none" stroke="#F6A5A5" stroke-width="9" stroke-linecap="round"/><path d="M110 25 C155 25 175 65 172 105 C169 150 140 178 105 175 C75 172 60 150 70 130 C76 118 88 112 88 100 C88 88 76 82 70 70 C60 48 78 25 110 25 Z" fill="#D9A8A8" stroke="#C0504D" stroke-width="4"/><path d="M120 42 C145 45 158 65 160 88" fill="none" stroke="#FFFFFF" stroke-opacity="0.55" stroke-width="7" stroke-linecap="round"/><path d="M102 90 L118 83" stroke="#3B2A2A" stroke-width="4" stroke-linecap="round"/><path d="M152 90 L136 83" stroke="#3B2A2A" stroke-width="4" stroke-linecap="round"/><path d="M104 98 Q112 92 120 98" fill="none" stroke="#3B2A2A" stroke-width="4" stroke-linecap="round"/><path d="M134 98 Q142 92 150 98" fill="none" stroke="#3B2A2A" stroke-width="4" stroke-linecap="round"/><path d="M114 128 Q127 114 140 128" fill="none" stroke="#3B2A2A" stroke-width="4.5" stroke-linecap="round"/><path d="M108 102 C104 112 106 124 104 134" fill="none" stroke="#4FC3F7" stroke-width="5" stroke-linecap="round"/><path d="M146 102 C150 112 148 124 150 134" fill="none" stroke="#4FC3F7" stroke-width="5" stroke-linecap="round"/></g><g transform="translate(40 150) scale(0.6)"><path d="M0 -14 C6 -5 10 0 10 5 A10 10 0 0 1 -10 5 C-10 0 -6 -5 0 -14 Z" fill="#4FC3F7"/><path d="M-4 3 A5 5 0 0 0 -1 9" fill="none" stroke="#FFFFFF" stroke-width="2" stroke-linecap="round" stroke-opacity="0.8"/></g><g transform="translate(186 176) scale(0.5)"><path d="M0 -14 C6 -5 10 0 10 5 A10 10 0 0 1 -10 5 C-10 0 -6 -5 0 -14 Z" fill="#4FC3F7"/><path d="M-4 3 A5 5 0 0 0 -1 9" fill="none" stroke="#FFFFFF" stroke-width="2" stroke-linecap="round" stroke-opacity="0.8"/></g>
</svg>
