<svg xmlns="http://www.w3.org/2000/svg" viewBox="0 0 240 200" width="240" height="200">
<circle cx="120" cy="100" r="92" fill="#F1F8E9"/><path d="M62 60 C58 30 182 30 178 60 C176 110 150 140 128 146 L128 172 L112 172 L112 146 C90 140 64 110 62 60 Z" fill="#F8BBD0" stroke="#C0504D" stroke-width="4"/><path d="M64 88 Q92 76 120 88 T176 88 C170 118 148 138 128 144 L112 144 C92 138 70 118 64 88 Z" fill="#4FC3F7" fill-opacity="0.75"/><path d="M62 52 C50 40 40 30 30 26" fill="none" stroke="#F6A5A5" stroke-width="8" stroke-linecap="round"/><path d="M178 52 C190 40 200 30 210 26" fill="none" stroke="#F6A5A5" stroke-width="8" stroke-linecap="round"/><g transform="translate(96 62) scale(0.9)"><path d="M0 0 L0 -16" stroke="#558B2F" stroke-width="3" stroke-linecap="round"/><path d="M0 0 L14 -8" stroke="#558B2F" stroke-width="3" stroke-linecap="round"/><path d="M0 0 L14 8" stroke="#558B2F" stroke-width="3" stroke-linecap="round"/><path d="M0 0 L0 16" stroke="#558B2F" stroke-width="3" stroke-linecap="round"/><path d="M0 0 L-14 8" stroke="#558B2F" stroke-width="3" stroke-linecap="round"/><path d="M0 0 L-14 -8" stroke="#558B2F" stroke-width="3" stroke-linecap="round"/><circle r="11" fill="#9CCC65" stroke="#558B2F" stroke-width="3"/><circle cx="-4" cy="-2" r="2.5" fill="#33691E"/><circle cx="4" cy="-2" r="2.5" fill="#33691E"/><path d="M-4 5 Q0 2 4 5" fill="none" stroke="#33691E" stroke-width="2"/></g><g transform="translate(146 66) scale(0.8)"><path d="M0 0 L0 -16" stroke="#558B2F" stroke-width="3" stroke-linecap="round"/><path d="M0 0 L14 -8" stroke="#558B2F" stroke-width="3" stroke-linecap="round"/><path d="M0 0 L14 8" stroke="#558B2F" stroke-width="3" stroke-linecap="round"/><path d="M0 0 L0 16" stroke="#558B2F" stroke-width="3" stroke-linecap="round"/><path d="M0 0 L-14 8" stroke="#558B2F" stroke-width="3" stroke-linecap="round"/><path d="M0 0 L-14 -8" stroke="#558B2F" stroke-width="3" stroke-linecap="round"/><circle r="11" fill="#9CCC65" stroke="#558B2F" stroke-width="3"/><circle cx="-4" cy="-2" r="2.5" fill="#33691E"/><circle cx="4" cy="-2" r="2.5" fill="#33691E"/><path d="M-4 5 Q0 2 4 5" fill="none" stroke="#33691E" stroke-width="2"/></g><g transform="translate(106 112) scale(0.8)"><path d="M0 0 L0 -16" stroke="#558B2F" stroke-width="3" stroke-linecap="round"/><path d="M0 0 L14 -8" stroke="#558B2F" stroke-width="3" stroke-linecap="round"/><path d="M0 0 L14 8" stroke="#558B2F" stroke-width="3" stroke-linecap="round"/><path d="M0 0 L0 16" stroke="#558B2F" stroke-width="3" stroke-linecap="round"/><path d="M0 0 L-14 8" stroke="#558B2F" stroke-width="3" stroke-linecap="round"/><path d="M0 0 L-14 -8" stroke="#558B2F" stroke-width="3" stroke-linecap="round"/><circle r="11" fill="#9CCC65" stroke="#558B2F" stroke-width="3"/><circle cx="-4" cy="-2" r="2.5" fill="#33691E"/><circle cx="4" cy="-2" r="2.5" fill="#33691E"/><path d="M-4 5 Q0 2 4 5" fill="none" stroke="#33691E" stroke-width="2"/></g><g transform="translate(142 118) scale(0.7)"><path d="M0 0 L0 -16" stroke="#558B2F" stroke-width="3" stroke-linecap="round"/><path d="M0 0 L14 -8" stroke="#558B2F" stroke-width="3" stroke-linecap="round"/><path d="M0 0 L14 8" stroke="#558B2F" stroke-width="3" stroke-linecap="round"/><path d="M0 0 L0 16" stroke="#558B2F" stroke-width="3" stroke-linecap="round"/><path d="M0 0 L-14 8" stroke="#558B2F" stroke-width="3" stroke-linecap="round"/><path d="M0 0 L-14 -8" stroke="#558B2F" stroke-width="3" stroke-linecap="round"/><circle r="11" fill="#9CCC65" stroke="#558B2F" stroke-width="3"/><circle cx="-4" cy="-2" r="2.5" fill="#33691E"/><circle cx="4" cy="-2" r="2.5" fill="#33691E"/><path d="M-4 5 Q0 2 4 5" fill="none" stroke="#33691E" stroke-width="2"/></g><g transform="translate(120 186) scale(0.7)"><path d="M0 0 L0 -16" stroke="#558B2F" stroke-width="3" stroke-linecap="round"/><path d="M0 0 L14 -8" stroke="#558B2F" stroke-width="3" stroke-linecap="round"/><path d="M0 0 L14 8" stroke="#558B2F" stroke-width="3" stroke-linecap="round"/><path d="M0 0 L0 16" stroke="#558B2F" stroke-width="3" stroke-linecap="round"/><path d="M0 0 L-14 8" stroke="#558B2F" stroke-width="3" stroke-linecap="round"/><path d="M0 0 L-14 -8" stroke="#558B2F" stroke-width="3" stroke-linecap="round"/><circle r="11" fill="#9CCC65" stroke="#558B2F" stroke-width="3"/><circle cx="-4" cy="-2" r="2.5" fill="#33691E"/><circle cx="4" cy="-2" r="2.5" fill="#33691E"/><path d="M-4 5 Q0 2 4 5" fill="none" stroke="#33691E" stroke-width="2"/></g><path d="M86 168 Q96 180 106 192" fill="none" stroke="#0288D1" stroke-width="4" stroke-linecap="round"/><path d="M154 168 Q144 180 134 192" fill="none" stroke="#0288D1" stroke-width="4" stroke-linecap="round"/><g transform="translate(34 120) scale(0.8)"><path d="M0 -14 C6 -5 10 0 10 5 A10 10 0 0 1 -10 5 C-10 0 -6 -5 0 -14 Z" fill="#4FC3F7"/><path d="M-4 3 A5 5 0 0 0 -1 9" fill="none" stroke="#FFFFFF" stroke-width="2" stroke-linecap="round" stroke-opacity="0.8"/></g><g transform="translate(206 120) scale(0.8)"><path d="M0 -14 C6 -5 10 0 10 5 A10 10 0 0 1 -10 5 C-10 0 -6 -5 0 -14 Z" fill="#4FC3F7"/><path d="M-4 3 A5 5 0 0 0 -1 9" fill="none" stroke="#FFFFFF" stroke-width="2" stroke-linecap="round" stroke-opacity="0.8"/></g>
</svg>
