<svg xmlns="http://www.w3.org/2000/svg" viewBox="0 0 240 200" width="240" height="200">
<circle cx="120" cy="100" r="92" fill="#E8EAF6"/><path d="M110 170 C40 120 40 60 80 52 C98 48 108 60 110 70 C112 60 122 48 140 52 C180 60 180 120 110 170 Z" fill="#EF5350" stroke="#B71C1C" stroke-width="4"/><circle cx="110" cy="100" r="30" fill="#FFFFFF" stroke="#B71C1C" stroke-width="3"/><path d="M86 108 A26 26 0 0 1 134 108" fill="none" stroke="#FFCDD2" stroke-width="6"/><path d="M122 90 A26 26 0 0 1 134 108" fill="none" stroke="#E53935" stroke-width="6"/><path d="M110 108 L128 88" stroke="#37474F" stroke-width="4" stroke-linecap="round"/><circle cx="110" cy="108" r="5" fill="#37474F"/><rect x="176" y="118" width="26" height="26" rx="4" fill="#FFFFFF" stroke="#90A4AE" stroke-width="3"/><rect x="190" y="146" width="26" height="26" rx="4" fill="#FFFFFF" stroke="#90A4AE" stroke-width="3"/><rect x="162" y="146" width="26" height="26" rx="4" fill="#FFFFFF" stroke="#90A4AE" stroke-width="3"/><g transform="translate(150 12) scale(0.42)"><path d="M110 25 C155 25 175 65 172 105 C169 150 140 178 105 175 C75 172 60 150 70 130 C76 118 88 112 88 100 C88 88 76 82 70 70 C60 48 78 25 110 25 Z" fill="#E57373" stroke="#C0504D" stroke-width="4"/><path d="M120 42 C145 45 158 65 160 88" fill="none" stroke="#FFFFFF" stroke-opacity="0.55" stroke-width="7" stroke-linecap="round"/><circle cx="112" cy="92" r="6" fill="#3B2A2A"/><circle cx="142" cy="92" r="6" fill="#3B2A2A"/><circle cx="114" cy="90" r="2" fill="#FFFFFF"/><circle cx="144" cy="90" r="2" fill="#FFFFFF"/><circle cx="104" cy="110" r="7" fill="#FF8A80" fill-opacity="0.7"/><circle cx="152" cy="110" r="7" fill="#FF8A80" fill-opacity="0.7"/><path d="M114 112 Q127 127 140 112" fill="none" stroke="#3B2A2A" stroke-width="4" stroke-linecap="round"/></g>
</svg>
