<svg xmlns="http://www.w3.org/2000/svg" viewBox="0 0 240 200" width="240" height="200">
<circle cx="120" cy="100" r="92" fill="#FCE4EC"/><path d="M14 80 L52 80" stroke="#C62828" stroke-width="10" stroke-linecap="round"/><path d="M48 68 L64 80 L48 92 Z" fill="#C62828"/><circle cx="22" cy="70" r="3.5" fill="#6D4C41"/><circle cx="34" cy="92" r="3.5" fill="#6D4C41"/><circle cx="44" cy="68" r="3.5" fill="#6D4C41"/><g transform="translate(0 0) scale(0.9)"><path d="M110 25 C155 25 175 65 172 105 C169 150 140 178 105 175 C75 172 60 150 70 130 C76 118 88 112 88 100 C88 88 76 82 70 70 C60 48 78 25 110 25 Z" fill="#E57373" stroke="#C0504D" stroke-width="4"/><path d="M120 42 C145 45 158 65 160 88" fill="none" stroke="#FFFFFF" stroke-opacity="0.55" stroke-width="7" stroke-linecap="round"/><circle cx="112" cy="92" r="6" fill="#3B2A2A"/><circle cx="142" cy="92" r="6" fill="#3B2A2A"/><circle cx="114" cy="90" r="2" fill="#FFFFFF"/><circle cx="144" cy="90" r="2" fill="#FFFFFF"/><circle cx="104" cy="110" r="7" fill="#FF8A80" fill-opacity="0.7"/><circle cx="152" cy="110" r="7" fill="#FF8A80" fill-opacity="0.7"/><path d="M114 112 Q127 127 140 112" fill="none" stroke="#3B2A2A" stroke-width="4" stroke-linecap="round"/></g><path d="M168 80 L214 80" stroke="#E53935" stroke-width="10" stroke-linecap="round"/><path d="M210 68 L226 80 L210 92 Z" fill="#E53935"/><path d="M80 96 C66 116 78 144 70 168" fill="none" stroke="#F6A5A5" stroke-width="9" stroke-linecap="round"/><g transform="translate(70 186) scale(0.9)"><path d="M0 -14 C6 -5 10 0 10 5 A10 10 0 0 1 -10 5 C-10 0 -6 -5 0 -14 Z" fill="#FFE082"/><path d="M-4 3 A5 5 0 0 0 -1 9" fill="none" stroke="#FFFFFF" stroke-width="2" stroke-linecap="round" stroke-opacity="0.8"/></g><circle cx="52" cy="178" r="3" fill="#6D4C41"/><circle cx="90" cy="184" r="3" fill="#6D4C41"/><path transform="translate(196 50) scale(0.8)" d="M0 -10 Q2 -2 10 0 Q2 2 0 10 Q-2 2 -10 0 Q-2 -2 0 -10 Z" fill="#FFD54F"/><path transform="translate(214 112) scale(0.6)" d="M0 -10 Q2 -2 10 0 Q2 2 0 10 Q-2 2 -10 0 Q-2 -2 0 -10 Z" fill="#FFD54F"/><g transform="translate(150 176) scale(0.8)"><path d="M0 -14 C6 -5 10 0 10 5 A10 10 0 0 1 -10 5 C-10 0 -6 -5 0 -14 Z" fill="#4FC3F7"/><path d="M-4 3 A5 5 0 0 0 -1 9" fill="none" stroke="#FFFFFF" stroke-width="2" stroke-linecap="round" stroke-opacity="0.8"/></g><g transform="translate(176 166) scale(0.6)"><path d="M0 -14 C6 -5 10 0 10 5 A10 10 0 0 1 -10 5 C-10 0 -6 -5 0 -14 Z" fill="#4FC3F7"/><path d="M-4 3 A5 5 0 0 0 -1 9" fill="none" stroke="#FFFFFF" stroke-width="2" stroke-linecap="round" stroke-opacity="0.8"/></g>
</svg>
