<svg xmlns="http://www.w3.org/2000/svg" viewBox="0 0 48 48" width="48" height="48">
<circle cx="24" cy="39" r="5" fill="#FF9600"/><path d="M24 6 C15 6 12 13 12 21 L12 29 L8 35 L40 35 L36 29 L36 21 C36 13 33 6 24 6 Z" fill="#E5A800" transform="translate(0 2)"/><path d="M24 6 C15 6 12 13 12 21 L12 29 L8 35 L40 35 L36 29 L36 21 C36 13 33 6 24 6 Z" fill="#FFC800"/><rect x="7" y="32" width="34" height="5" rx="2.5" fill="#E5A800"/><circle cx="24" cy="5" r="3" fill="#E5A800"/><path d="M17 26 L17 20 C17 16 19 13 21 12" fill="none" stroke="#FFFFFF" stroke-width="3" stroke-linecap="round" stroke-opacity="0.7"/><path d="M5 13 A16 16 0 0 1 10 5 M43 13 A16 16 0 0 0 38 5" fill="none" stroke="#FF9600" stroke-width="3.5" stroke-linecap="round"/>
</svg>
